<?xml version="1.0" standalone="no"?>
<!DOCTYPE svg PUBLIC "-//W3C//DTD SVG 20010904//EN"
 "http://www.w3.org/TR/2001/REC-SVG-20010904/DTD/svg10.dtd">
<svg version="1.0" xmlns="http://www.w3.org/2000/svg"
 width="16.000000pt" height="16.000000pt" viewBox="0 0 16.000000 16.000000"
 preserveAspectRatio="xMidYMid meet">

<g transform="translate(0.000000,16.000000) scale(0.100000,-0.100000)"
fill="#000000" stroke="none">
<path d="M120 136 c-11 -31 -55 -36 -76 -8 -10 13 -15 14 -24 5 -14 -13 -5
-33 16 -33 8 0 14 -10 14 -24 0 -18 -6 -25 -23 -28 -14 -2 -22 -10 -22 -23 0
-29 39 -27 43 3 3 22 41 33 43 12 1 -5 2 -15 3 -22 2 -18 26 -22 26 -4 0 9 -4
16 -10 16 -5 0 -10 7 -10 15 0 18 21 20 38 3 6 -6 14 -9 18 -5 10 10 -6 27
-27 27 -29 0 -25 38 7 50 14 6 24 15 22 22 -8 23 -28 19 -38 -6z m30 4 c0 -5
-4 -10 -10 -10 -5 0 -10 5 -10 10 0 6 5 10 10 10 6 0 10 -4 10 -10z m-110 -20
c0 -5 -4 -10 -10 -10 -5 0 -10 5 -10 10 0 6 5 10 10 10 6 0 10 -4 10 -10z m56
-31 c10 -17 -13 -36 -27 -22 -12 12 -4 33 11 33 5 0 12 -5 16 -11z m-56 -64
c0 -8 -7 -15 -15 -15 -8 0 -15 7 -15 15 0 8 7 15 15 15 8 0 15 -7 15 -15z"/>
</g>
</svg>
